HIERARCHY
ROOT joint_Root
{
	OFFSET 0.0 0.0 0.0
	CHANNELS 6 Xposition Yposition Zposition Zrotation Xrotation Yrotation 
	JOINT Hips
	{
		OFFSET -0.726466 93.3139 -2.00062
		CHANNELS 6 Xposition Yposition Zposition Zrotation Xrotation Yrotation 
		JOINT Spine
		{
			OFFSET 15.7357 0.0 0.0
			CHANNELS 6 Xposition Yposition Zposition Zrotation Xrotation Yrotation 
			JOINT Chest
			{
				OFFSET 8.98455 -0.406207 0.0
				CHANNELS 6 Xposition Yposition Zposition Zrotation Xrotation Yrotation 
				JOINT Neck
				{
					OFFSET 16.3773 0.0 0.0
					CHANNELS 6 Xposition Yposition Zposition Zrotation Xrotation Yrotation 
					JOINT Head
					{
						OFFSET 6.45672 0.0 0.0
						CHANNELS 6 Xposition Yposition Zposition Zrotation Xrotation Yrotation 
						End Site
						{
							OFFSET 0.0 0.0 0.0
						}
					}
				}
				JOINT Shoulder_L
				{
					OFFSET 12.9942 -0.242716 4.98039
					CHANNELS 6 Xposition Yposition Zposition Zrotation Xrotation Yrotation 
					JOINT UpperArm_L
					{
						OFFSET 5.34809 0.0 0.0
						CHANNELS 6 Xposition Yposition Zposition Zrotation Xrotation Yrotation 
						JOINT LowerArm_L
						{
							OFFSET 24.3286 1.87007e-05 0.0
							CHANNELS 6 Xposition Yposition Zposition Zrotation Xrotation Yrotation 
							JOINT Hand_L
							{
								OFFSET 22.2916 0.0 0.0
								CHANNELS 6 Xposition Yposition Zposition Zrotation Xrotation Yrotation 
								End Site
								{
									OFFSET 0.0 0.0 0.0
								}
							}
						}
					}
				}
				JOINT Shoulder_R
				{
					OFFSET 12.9945 -0.242716 -4.98039
					CHANNELS 6 Xposition Yposition Zposition Zrotation Xrotation Yrotation 
					JOINT UpperArm_R
					{
						OFFSET -5.34813 0.0 0.0
						CHANNELS 6 Xposition Yposition Zposition Zrotation Xrotation Yrotation 
						JOINT LowerArm_R
						{
							OFFSET -24.3289 0.000322201 0.0
							CHANNELS 6 Xposition Yposition Zposition Zrotation Xrotation Yrotation 
							JOINT Hand_R
							{
								OFFSET -22.2915 -0.000108084 0.0
								CHANNELS 6 Xposition Yposition Zposition Zrotation Xrotation Yrotation 
								End Site
								{
									OFFSET 0.0 0.0 0.0
								}
							}
						}
					}
				}
			}
		}
		JOINT UpperLeg_L
		{
			OFFSET -2.19248 -6.46944 0.0
			CHANNELS 6 Xposition Yposition Zposition Zrotation Xrotation Yrotation 
			JOINT LowerLeg_L
			{
				OFFSET 39.0811 0.0 -1.23785e-05
				CHANNELS 6 Xposition Yposition Zposition Zrotation Xrotation Yrotation 
				JOINT Foot_L
				{
					OFFSET 40.9854 0.0 -1.26872e-05
					CHANNELS 6 Xposition Yposition Zposition Zrotation Xrotation Yrotation 
					JOINT Toes_L
					{
						OFFSET 11.7543 0.0 0.0
						CHANNELS 6 Xposition Yposition Zposition Zrotation Xrotation Yrotation 
						End Site
						{
							OFFSET 0.0 0.0 0.0
						}
					}
				}
			}
		}
		JOINT UpperLeg_R
		{
			OFFSET -2.19251 6.46944 0.0
			CHANNELS 6 Xposition Yposition Zposition Zrotation Xrotation Yrotation 
			JOINT LowerLeg_R
			{
				OFFSET -39.0811 -0.00228153 -0.0401928
				CHANNELS 6 Xposition Yposition Zposition Zrotation Xrotation Yrotation 
				JOINT Foot_R
				{
					OFFSET -40.9854 0.0 0.0
					CHANNELS 6 Xposition Yposition Zposition Zrotation Xrotation Yrotation 
					JOINT Toes_R
					{
						OFFSET -11.7543 0.0 0.0
						CHANNELS 6 Xposition Yposition Zposition Zrotation Xrotation Yrotation 
						End Site
						{
							OFFSET 0.0 0.0 0.0
						}
					}
				}
			}
		}
	}
}
MOTION
Frames:	7
Frame Time:	0.0333333
0.000000 0.000000 0.000000 0.000000 0.000000 -0.000000 -0.515754 92.204100 0.758580 87.985400 -2.487530 3.396300 15.735700 0.000005 -0.000001 87.668400 85.358800 -87.246100 8.984550 -0.406207 -0.000000 1.510360 -0.400482 0.849154 16.377300 -0.000001 -0.000001 3.703990 -1.844470 -0.085329 6.456720 -0.000001 -0.000000 1.047150 -1.040950 1.049000 12.994200 -0.242716 4.980390 -89.974500 -0.078225 -71.945200 5.348090 -0.000007 -0.000001 -68.486900 36.362500 -14.657400 24.328600 0.000019 0.000005 2.570950 5.641200 -24.547800 22.291600 -0.000001 0.000005 2.515420 5.465610 -5.206700 12.994500 -0.242716 -4.980390 87.602700 7.161700 -71.437400 -5.348130 -0.000001 -0.000004 -65.556300 39.450800 -14.866900 -24.328900 0.000322 -0.000009 2.118050 7.036110 -16.808000 -22.291500 -0.000108 -0.000004 9.642960 5.409280 -3.241330 -2.192480 -6.469440 -0.000000 -175.609000 -6.871100 -1.796650 39.081100 -0.000007 -0.000012 -0.114902 0.276983 22.530400 40.985400 -0.000006 -0.000013 -0.409957 2.126420 -67.442600 11.754300 -0.000000 0.000003 -0.000044 -0.000506 -16.597200 -2.192510 6.469440 -0.000001 179.672000 11.852400 179.823000 -39.081100 -0.002282 -0.040193 -0.013034 0.045664 19.706300 -40.985400 0.000008 0.000006 4.189080 7.555600 -66.748100 -11.754300 -0.000006 -0.000006 -0.007696 -0.085536 -20.055900
0.000000 0.000000 0.000000 0.000000 0.000000 -0.000000 -0.517897 92.193100 0.730539 87.954400 -2.454500 3.457310 15.735700 0.000005 -0.000001 87.990800 85.332500 -87.530400 8.984550 -0.406207 -0.000000 1.564830 -0.352018 0.924672 16.377300 -0.000001 -0.000001 3.754450 -1.956530 0.065607 6.456720 -0.000001 -0.000000 1.015210 -1.194490 1.040710 12.994200 -0.242716 4.980390 -90.083200 0.253744 -71.840800 5.348090 -0.000007 -0.000001 -67.123700 34.900500 -15.786300 24.328600 0.000019 0.000005 2.804370 5.517550 -27.002800 22.291600 -0.000001 0.000005 2.965270 5.472570 -5.464410 12.994500 -0.242716 -4.980390 87.638400 7.063350 -71.459600 -5.348130 -0.000001 -0.000004 -65.679100 39.302100 -14.837300 -24.328900 0.000322 -0.000009 2.109320 7.017150 -16.785100 -22.291500 -0.000108 -0.000004 9.603170 5.410060 -3.267040 -2.192480 -6.469440 -0.000000 -175.582000 -6.809000 -1.826110 39.081100 -0.000007 -0.000012 -0.114004 0.273074 22.659900 40.985400 -0.000006 -0.000013 -0.402183 2.124380 -67.484400 11.754300 -0.000000 0.000003 -0.000042 -0.000485 -16.596400 -2.192510 6.469440 -0.000001 179.680000 11.947600 179.829000 -39.081100 -0.002282 -0.040193 -0.015749 0.053079 19.763000 -40.985400 0.000008 0.000006 4.006660 7.570140 -66.714800 -11.754300 -0.000006 -0.000006 -0.007617 -0.084873 -20.028800
0.000000 0.000000 0.000000 0.000000 0.000000 -0.000000 -0.521067 92.193600 0.709868 87.954300 -2.333590 3.603250 15.735700 0.000005 -0.000001 89.008600 85.288100 -88.527000 8.984550 -0.406207 -0.000000 1.657400 -0.188632 0.964999 16.377300 -0.000001 -0.000001 3.796460 -2.137590 0.212792 6.456720 -0.000001 -0.000000 1.077330 -1.565070 1.173970 12.994200 -0.242716 4.980390 -90.193300 0.588041 -71.807600 5.348090 -0.000007 -0.000001 -64.456500 32.974000 -18.164800 24.328600 0.000019 0.000005 2.416060 3.965460 -31.403000 22.291600 -0.000001 0.000005 4.025800 5.494720 -6.315240 12.994500 -0.242716 -4.980390 87.675900 6.967610 -71.501500 -5.348130 -0.000001 -0.000004 -65.861800 39.162200 -14.670700 -24.328900 0.000322 -0.000009 2.080220 6.905730 -16.817200 -22.291500 -0.000108 -0.000004 9.514790 5.408240 -3.206970 -2.192480 -6.469440 -0.000000 -175.586000 -6.668410 -1.731870 39.081100 -0.000007 -0.000012 -0.113883 0.272429 22.686500 40.985400 -0.000006 -0.000013 -0.417292 2.037380 -67.467600 11.754300 -0.000000 0.000003 -0.000056 -0.000626 -16.601800 -2.192510 6.469440 -0.000001 179.646000 12.020600 179.977000 -39.081100 -0.002282 -0.040193 -0.016630 0.055548 19.757100 -40.985400 0.000008 0.000006 3.992490 7.561550 -66.705600 -11.754300 -0.000006 -0.000006 -0.007492 -0.083835 -19.986400
0.000000 0.000000 0.000000 0.000000 0.000000 -0.000000 -0.548239 92.185300 0.654673 88.001200 -2.052900 3.684370 15.735700 0.000005 -0.000001 89.854700 85.290000 -89.383200 8.984550 -0.406207 -0.000000 1.654330 -0.049015 0.942967 16.377300 -0.000001 -0.000001 4.000740 -2.324550 0.341699 6.456720 -0.000001 -0.000000 1.119920 -2.009470 1.519550 12.994200 -0.242716 4.980390 -90.250500 0.757579 -71.701800 5.348090 -0.000007 -0.000001 -61.114700 29.945700 -21.621100 24.328600 0.000019 0.000005 2.088270 2.682810 -37.932300 22.291600 -0.000001 0.000005 5.404010 5.519690 -7.340680 12.994500 -0.242716 -4.980390 87.692800 6.953290 -71.592300 -5.348130 -0.000001 -0.000004 -66.002400 39.154100 -14.487800 -24.328900 0.000322 -0.000009 2.101900 7.051350 -16.653200 -22.291500 -0.000108 -0.000004 9.572960 5.408410 -3.212580 -2.192480 -6.469440 -0.000000 -175.611000 -6.421080 -1.766450 39.081100 -0.000007 -0.000012 -0.115252 0.274709 22.760200 40.985400 -0.000006 -0.000013 -0.422719 2.121370 -67.445700 11.754300 -0.000000 0.000003 -0.000040 -0.000466 -16.595700 -2.192510 6.469440 -0.000001 179.562000 12.284200 -179.995000 -39.081100 -0.002282 -0.040193 -0.022939 0.072785 19.839000 -40.985400 0.000008 0.000006 3.799490 7.560680 -66.700300 -11.754300 -0.000006 -0.000006 -0.007588 -0.084635 -20.019100
0.000000 0.000000 0.000000 0.000000 0.000000 -0.000000 -0.605852 92.178300 0.605387 87.977200 -1.744230 3.829610 15.735700 0.000005 -0.000001 90.686300 85.293300 -90.190300 8.984550 -0.406207 -0.000000 1.646480 0.086214 0.989866 16.377300 -0.000001 -0.000001 4.234530 -2.485910 0.443176 6.456720 -0.000001 -0.000000 1.304220 -2.480370 1.977580 12.994200 -0.242716 4.980390 -90.236100 0.713039 -71.676800 5.348090 -0.000007 -0.000001 -57.960700 25.445800 -25.854900 24.328600 0.000019 0.000005 2.543630 2.454480 -46.033900 22.291600 -0.000001 0.000005 7.363470 5.545470 -8.481470 12.994500 -0.242716 -4.980390 87.699600 6.960580 -71.660800 -5.348130 -0.000001 -0.000004 -65.869200 39.493300 -14.533900 -24.328900 0.000322 -0.000009 2.106720 7.206830 -16.350400 -22.291500 -0.000108 -0.000004 9.518020 5.408660 -3.221010 -2.192480 -6.469440 -0.000000 -175.512000 -6.379290 -1.767270 39.081100 -0.000007 -0.000012 -0.118156 0.279906 22.886000 40.985400 -0.000006 -0.000013 -0.410215 2.368170 -67.436100 11.754300 -0.000000 0.000003 -0.000049 -0.000553 -16.599000 -2.192510 6.469440 -0.000001 179.601000 12.500900 -179.876000 -39.081100 -0.002282 -0.040193 -0.021508 0.068646 19.885100 -40.985400 0.000008 0.000006 3.852250 7.439520 -66.723700 -11.754300 -0.000006 -0.000006 -0.007592 -0.084666 -20.020400
0.000000 0.000000 0.000000 0.000000 0.000000 -0.000000 -0.655770 92.168600 0.559619 88.023100 -1.394440 4.021190 15.735700 0.000005 -0.000001 90.954300 85.298000 -90.484000 8.984550 -0.406207 -0.000000 1.636330 0.131389 0.937742 16.377300 -0.000001 -0.000001 4.473300 -2.711090 0.598757 6.456720 -0.000001 -0.000000 1.629950 -2.789400 2.657910 12.994200 -0.242716 4.980390 -90.131100 0.395589 -71.666000 5.348090 -0.000007 -0.000001 -55.252900 19.779200 -30.774500 24.328600 0.000019 0.000005 3.266670 2.266830 -55.280300 22.291600 -0.000001 0.000005 9.901850 5.566320 -9.489890 12.994500 -0.242716 -4.980390 87.686000 7.012110 -71.685200 -5.348130 -0.000001 -0.000004 -65.827100 39.629500 -14.658800 -24.328900 0.000322 -0.000009 2.094330 7.371450 -15.916500 -22.291500 -0.000108 -0.000004 9.514360 5.409130 -3.236960 -2.192480 -6.469440 -0.000000 -175.496000 -6.231730 -1.687170 39.081100 -0.000007 -0.000012 -0.117053 0.276303 22.959500 40.985400 -0.000006 -0.000013 -0.387582 2.625370 -67.417800 11.754300 -0.000000 0.000003 -0.000053 -0.000594 -16.600600 -2.192510 6.469440 -0.000001 179.526000 12.790900 -179.727000 -39.081100 -0.002282 -0.040193 -0.022968 0.072250 19.994700 -40.985400 0.000008 0.000006 3.880130 7.385830 -66.789700 -11.754300 -0.000006 -0.000006 -0.007637 -0.085042 -20.035700
0.000000 0.000000 0.000000 0.000000 0.000000 -0.000000 -0.703047 92.164000 0.517770 88.055800 -1.121080 4.206490 15.735700 0.000005 -0.000001 90.712600 85.316300 -90.260500 8.984550 -0.406207 -0.000000 1.600430 0.092116 0.902103 16.377300 -0.000001 -0.000001 4.699890 -2.912020 0.727541 6.456720 -0.000001 -0.000000 1.988990 -2.995780 3.410240 12.994200 -0.242716 4.980390 -89.930700 -0.210183 -71.750100 5.348090 -0.000007 -0.000001 -53.805900 12.932000 -35.934900 24.328600 0.000019 0.000005 3.429670 1.596790 -65.055400 22.291600 -0.000001 0.000005 12.492300 5.585030 -10.472300 12.994500 -0.242716 -4.980390 87.659100 7.068100 -71.622300 -5.348130 -0.000001 -0.000004 -65.778300 39.566500 -14.842100 -24.328900 0.000322 -0.000009 2.087640 7.465630 -15.679000 -22.291500 -0.000108 -0.000004 9.557950 5.405580 -3.119610 -2.192480 -6.469440 -0.000000 -175.457000 -6.186530 -1.589920 39.081100 -0.000007 -0.000012 -0.118068 0.278108 23.003300 40.985400 -0.000006 -0.000013 -0.369716 2.874270 -67.385600 11.754300 -0.000000 0.000003 -0.000053 -0.000600 -16.600800 -2.192510 6.469440 -0.000001 179.484000 12.986400 -179.584000 -39.081100 -0.002282 -0.040193 -0.022902 0.071788 20.066700 -40.985400 0.000008 0.000006 3.889390 7.285530 -66.815800 -11.754300 -0.000006 -0.000006 -0.007383 -0.082919 -19.949000
